<svg xmlns="http://www.w3.org/2000/svg" width="1200" height="720" viewBox="0 0 1200 720">
  <defs>
    <linearGradient id="g" x1="0" y1="0" x2="1" y2="1">
      <stop offset="0%" stop-color="#6366f1"/>
      <stop offset="100%" stop-color="#06b6d4"/>
    </linearGradient>
  </defs>
  <rect width="1200" height="720" fill="#0f172a"/>
  <rect x="40" y="40" width="1120" height="80" rx="12" fill="url(#g)"/>
  <text x="60" y="90" font-family="Segoe UI, Roboto, Arial" font-size="34" fill="#fff" font-weight="600">Demo Dashboard</text>

  <rect x="40" y="140" width="260" height="540" rx="12" fill="#111827" stroke="#1f2937"/>
  <text x="60" y="180" font-family="Segoe UI, Roboto, Arial" font-size="20" fill="#9ca3af">Navigation</text>
  <g fill="#1f2937">
    <rect x="60" y="210" width="200" height="36" rx="8"/>
    <rect x="60" y="256" width="200" height="36" rx="8"/>
    <rect x="60" y="302" width="200" height="36" rx="8"/>
    <rect x="60" y="348" width="200" height="36" rx="8"/>
  </g>

  <rect x="320" y="140" width="840" height="260" rx="12" fill="#111827" stroke="#1f2937"/>
  <text x="340" y="180" font-family="Segoe UI, Roboto, Arial" font-size="20" fill="#9ca3af">KPI Übersicht</text>
  <g>
    <rect x="340" y="200" width="180" height="180" rx="12" fill="#0b1220" stroke="#1f2937"/>
    <rect x="540" y="200" width="180" height="180" rx="12" fill="#0b1220" stroke="#1f2937"/>
    <rect x="740" y="200" width="180" height="180" rx="12" fill="#0b1220" stroke="#1f2937"/>
    <rect x="940" y="200" width="180" height="180" rx="12" fill="#0b1220" stroke="#1f2937"/>
  </g>

  <rect x="320" y="420" width="400" height="260" rx="12" fill="#111827" stroke="#1f2937"/>
  <text x="340" y="460" font-family="Segoe UI, Roboto, Arial" font-size="20" fill="#9ca3af">Linien-Chart</text>
  <polyline points="340,640 360,600 380,610 400,560 420,590 440,520 460,530 480,500 500,540 520,520 540,530 560,480 580,460 600,470 620,430 640,420 660,440 680,410 700,400" fill="none" stroke="#22d3ee" stroke-width="3"/>

  <rect x="740" y="420" width="420" height="260" rx="12" fill="#111827" stroke="#1f2937"/>
  <text x="760" y="460" font-family="Segoe UI, Roboto, Arial" font-size="20" fill="#9ca3af">Balken-Chart</text>
  <g fill="#22d3ee">
    <rect x="780" y="640" width="24" height="40"/>
    <rect x="820" y="600" width="24" height="80"/>
    <rect x="860" y="560" width="24" height="120"/>
    <rect x="900" y="520" width="24" height="160"/>
    <rect x="940" y="500" width="24" height="180"/>
    <rect x="980" y="560" width="24" height="120"/>
    <rect x="1020" y="620" width="24" height="60"/>
  </g>
</svg>
