<svg xmlns="http://www.w3.org/2000/svg" width="1440" height="900" viewBox="0 0 1440 900">
  <defs>
    <linearGradient id="bg" x1="0" y1="0" x2="1" y2="1">
      <stop offset="0%" stop-color="#0ea5e9"/>
      <stop offset="100%" stop-color="#6366f1"/>
    </linearGradient>
  </defs>
  <rect width="1440" height="900" fill="#0b1220"/>
  <rect x="120" y="80" width="1200" height="120" rx="16" fill="#0f172a" stroke="#1f2937"/>
  <text x="160" y="155" font-family="Segoe UI, Roboto, Arial" font-size="34" fill="#cbd5e1" font-weight="600">Produkt Landingpage</text>

  <rect x="120" y="230" width="1200" height="280" rx="20" fill="#0f172a" stroke="#1f2937"/>
  <rect x="160" y="260" width="520" height="220" rx="16" fill="#111827" stroke="#1f2937"/>
  <g>
    <rect x="720" y="260" width="560" height="48" rx="12" fill="#111827" stroke="#1f2937"/>
    <rect x="720" y="318" width="420" height="36" rx="10" fill="#111827" stroke="#1f2937"/>
    <rect x="720" y="364" width="460" height="36" rx="10" fill="#111827" stroke="#1f2937"/>
    <rect x="720" y="410" width="380" height="36" rx="10" fill="#111827" stroke="#1f2937"/>
    <rect x="1220" y="410" width="60" height="36" rx="10" fill="#22d3ee"/>
  </g>

  <g>
    <rect x="120" y="540" width="380" height="240" rx="16" fill="#0f172a" stroke="#1f2937"/>
    <rect x="520" y="540" width="380" height="240" rx="16" fill="#0f172a" stroke="#1f2937"/>
    <rect x="920" y="540" width="380" height="240" rx="16" fill="#0f172a" stroke="#1f2937"/>
  </g>
</svg>
